# xmcd
#
# Track frame offsets: 
#        150
#        32450
#        61682
#
# Disc length: 1092 seconds
#
# Revision: 3
# Processed by: cddbd v1.5.2PL0 Copyright (c) Steve Scherf et al.
# Submitted via: ExactAudioCopy v1.0b6
#
DISCID=17044203
DTITLE=New Order - Round and Remix (GE CD)
DYEAR=1989
DGENRE=Synthpop
TTITLE0=Round and Round (Club Mix)
TTITLE1=Round and Round (Detroit Mix)
TTITLE2=Best and Marsh
EXTD=
EXTT0=
EXTT1=
EXTT2=
PLAYORDER=
